<mxfile host="Electron" agent="Mozilla/5.0 (X11; Linux x86_64) AppleWebKit/537.36 (KHTML, like Gecko) draw.io/28.1.2 Chrome/138.0.7204.243 Electron/37.4.0 Safari/537.36" version="28.1.2">
  <diagram name="Page-1" id="TbBs6aCOrOvboylhNv06">
    <mxGraphModel dx="1136" dy="799" grid="1" gridSize="10" guides="1" tooltips="1" connect="1" arrows="1" fold="1" page="1" pageScale="1" pageWidth="827" pageHeight="1169" math="0" shadow="0">
      <root>
        <mxCell id="0" />
        <mxCell id="1" parent="0" />
        <mxCell id="P3WJ9ojwcxjiww_0dD9Q-6" value="" style="edgeStyle=orthogonalEdgeStyle;rounded=0;orthogonalLoop=1;jettySize=auto;html=1;" edge="1" parent="1" source="P3WJ9ojwcxjiww_0dD9Q-1" target="P3WJ9ojwcxjiww_0dD9Q-5">
          <mxGeometry relative="1" as="geometry" />
        </mxCell>
        <mxCell id="P3WJ9ojwcxjiww_0dD9Q-1" value="Family" style="rounded=1;whiteSpace=wrap;html=1;fillColor=none;" vertex="1" parent="1">
          <mxGeometry x="40" y="240" width="120" height="60" as="geometry" />
        </mxCell>
        <mxCell id="P3WJ9ojwcxjiww_0dD9Q-2" value="Fresh" style="rounded=1;whiteSpace=wrap;html=1;fillColor=none;" vertex="1" parent="1">
          <mxGeometry x="320" y="400" width="120" height="60" as="geometry" />
        </mxCell>
        <mxCell id="P3WJ9ojwcxjiww_0dD9Q-3" value="Bespoke&lt;span style=&quot;white-space: pre;&quot;&gt;&#x9;&lt;/span&gt;" style="rounded=1;whiteSpace=wrap;html=1;fillColor=none;" vertex="1" parent="1">
          <mxGeometry x="320" y="480" width="120" height="60" as="geometry" />
        </mxCell>
        <mxCell id="P3WJ9ojwcxjiww_0dD9Q-4" value="Random" style="rounded=1;whiteSpace=wrap;html=1;fillColor=none;" vertex="1" parent="1">
          <mxGeometry x="320" y="560" width="120" height="60" as="geometry" />
        </mxCell>
        <mxCell id="P3WJ9ojwcxjiww_0dD9Q-8" value="" style="edgeStyle=orthogonalEdgeStyle;rounded=0;orthogonalLoop=1;jettySize=auto;html=1;" edge="1" parent="1" source="P3WJ9ojwcxjiww_0dD9Q-5" target="P3WJ9ojwcxjiww_0dD9Q-7">
          <mxGeometry relative="1" as="geometry" />
        </mxCell>
        <mxCell id="P3WJ9ojwcxjiww_0dD9Q-17" value="" style="edgeStyle=orthogonalEdgeStyle;rounded=0;orthogonalLoop=1;jettySize=auto;html=1;" edge="1" parent="1" source="P3WJ9ojwcxjiww_0dD9Q-5" target="P3WJ9ojwcxjiww_0dD9Q-16">
          <mxGeometry relative="1" as="geometry" />
        </mxCell>
        <mxCell id="P3WJ9ojwcxjiww_0dD9Q-5" value="Anthro" style="shape=parallelogram;perimeter=parallelogramPerimeter;whiteSpace=wrap;html=1;fixedSize=1;fillColor=none;rounded=1;" vertex="1" parent="1">
          <mxGeometry x="40" y="380" width="120" height="60" as="geometry" />
        </mxCell>
        <mxCell id="P3WJ9ojwcxjiww_0dD9Q-10" value="" style="edgeStyle=orthogonalEdgeStyle;rounded=0;orthogonalLoop=1;jettySize=auto;html=1;" edge="1" parent="1" source="P3WJ9ojwcxjiww_0dD9Q-7" target="P3WJ9ojwcxjiww_0dD9Q-9">
          <mxGeometry relative="1" as="geometry" />
        </mxCell>
        <mxCell id="P3WJ9ojwcxjiww_0dD9Q-18" value="" style="edgeStyle=orthogonalEdgeStyle;rounded=0;orthogonalLoop=1;jettySize=auto;html=1;" edge="1" parent="1" source="P3WJ9ojwcxjiww_0dD9Q-7" target="P3WJ9ojwcxjiww_0dD9Q-16">
          <mxGeometry relative="1" as="geometry" />
        </mxCell>
        <mxCell id="P3WJ9ojwcxjiww_0dD9Q-7" value="Alien" style="shape=parallelogram;perimeter=parallelogramPerimeter;whiteSpace=wrap;html=1;fixedSize=1;fillColor=none;rounded=1;" vertex="1" parent="1">
          <mxGeometry x="40" y="460" width="120" height="60" as="geometry" />
        </mxCell>
        <mxCell id="P3WJ9ojwcxjiww_0dD9Q-12" value="" style="edgeStyle=orthogonalEdgeStyle;rounded=0;orthogonalLoop=1;jettySize=auto;html=1;" edge="1" parent="1" source="P3WJ9ojwcxjiww_0dD9Q-9" target="P3WJ9ojwcxjiww_0dD9Q-11">
          <mxGeometry relative="1" as="geometry" />
        </mxCell>
        <mxCell id="P3WJ9ojwcxjiww_0dD9Q-19" value="" style="edgeStyle=orthogonalEdgeStyle;rounded=0;orthogonalLoop=1;jettySize=auto;html=1;" edge="1" parent="1" source="P3WJ9ojwcxjiww_0dD9Q-9" target="P3WJ9ojwcxjiww_0dD9Q-16">
          <mxGeometry relative="1" as="geometry" />
        </mxCell>
        <mxCell id="P3WJ9ojwcxjiww_0dD9Q-9" value="Robot" style="shape=parallelogram;perimeter=parallelogramPerimeter;whiteSpace=wrap;html=1;fixedSize=1;fillColor=none;rounded=1;" vertex="1" parent="1">
          <mxGeometry x="40" y="540" width="120" height="60" as="geometry" />
        </mxCell>
        <mxCell id="P3WJ9ojwcxjiww_0dD9Q-20" value="" style="edgeStyle=orthogonalEdgeStyle;rounded=0;orthogonalLoop=1;jettySize=auto;html=1;" edge="1" parent="1" source="P3WJ9ojwcxjiww_0dD9Q-11" target="P3WJ9ojwcxjiww_0dD9Q-16">
          <mxGeometry relative="1" as="geometry" />
        </mxCell>
        <mxCell id="P3WJ9ojwcxjiww_0dD9Q-11" value="AI" style="shape=parallelogram;perimeter=parallelogramPerimeter;whiteSpace=wrap;html=1;fixedSize=1;fillColor=none;rounded=1;" vertex="1" parent="1">
          <mxGeometry x="40" y="620" width="120" height="60" as="geometry" />
        </mxCell>
        <mxCell id="P3WJ9ojwcxjiww_0dD9Q-13" value="TOY" style="rounded=1;whiteSpace=wrap;html=1;fillColor=none;" vertex="1" parent="1">
          <mxGeometry x="200" y="240" width="120" height="60" as="geometry" />
        </mxCell>
        <mxCell id="P3WJ9ojwcxjiww_0dD9Q-14" value="Mutation" style="rounded=1;whiteSpace=wrap;html=1;fillColor=none;" vertex="1" parent="1">
          <mxGeometry x="360" y="240" width="120" height="60" as="geometry" />
        </mxCell>
        <mxCell id="P3WJ9ojwcxjiww_0dD9Q-15" value="" style="rounded=1;whiteSpace=wrap;html=1;fillColor=none;" vertex="1" parent="1">
          <mxGeometry x="520" y="240" width="120" height="60" as="geometry" />
        </mxCell>
        <mxCell id="P3WJ9ojwcxjiww_0dD9Q-16" value="" style="ellipse;shape=cloud;whiteSpace=wrap;html=1;fillColor=none;" vertex="1" parent="1">
          <mxGeometry x="210" y="325" width="310" height="355" as="geometry" />
        </mxCell>
      </root>
    </mxGraphModel>
  </diagram>
</mxfile>
